<svg width="64" height="64" viewBox="0 0 64 64" fill="none" xmlns="http://www.w3.org/2000/svg">
<g clip-path="url(#clip0_197_5646)">
<path d="M32.0001 64.0002C47.8668 64.0002 61.0001 52.4668 63.5335 37.3335H0.466797C3.00013 52.4668 16.1335 64.0002 32.0001 64.0002Z" fill="#F0263C"/>
<path d="M32.0001 0C16.1335 0 3.00013 11.5333 0.466797 26.6667H63.5335C61.0001 11.5333 47.8668 0 32.0001 0Z" fill="#F0263C"/>
<path d="M63.5333 26.6665H0.466667C0.133333 28.3998 0 30.1998 0 31.9998C0 33.7998 0.133333 35.5998 0.466667 37.3332H63.5333C63.8 35.5998 64 33.7998 64 31.9998C64 30.1998 63.8667 28.3998 63.5333 26.6665Z" fill="white"/>
</g>
<defs>
<clipPath id="clip0_197_5646">
<rect width="64" height="64" fill="white"/>
</clipPath>
</defs>
</svg>
