<svg width="64" height="64" viewBox="0 0 64 64" fill="none" xmlns="http://www.w3.org/2000/svg">
<g clip-path="url(#clip0_197_5926)">
<path d="M0 32C0 49.6667 14.3333 64 32 64V0C14.3333 0 0 14.3333 0 32Z" fill="white"/>
<path d="M32 0V64C49.6667 64 64 49.6667 64 32C64 14.3333 49.6667 0 32 0Z" fill="#F0263C"/>
<path d="M21.333 13.3333V9.33325H13.333V13.3333H9.33301V21.3333H13.333V25.3333H21.333V21.3333H25.333V13.3333H21.333ZM23.9997 19.9999H19.9997V23.9999H14.6663V19.9999H10.6663V14.6666H14.6663V10.6666H19.9997V14.6666H23.9997V19.9999Z" fill="#F0263C"/>
<path d="M19.9993 14.6665V10.6665H14.666V14.6665H10.666V19.9998H14.666V23.9998H19.9993V19.9998H23.9993V14.6665H19.9993Z" fill="white"/>
</g>
<defs>
<clipPath id="clip0_197_5926">
<rect width="64" height="64" fill="white"/>
</clipPath>
</defs>
</svg>
